<svg width="100%" height="100%" viewBox="11.9095 13.68 127.198 104.587" version="1.1" xmlns="http://www.w3.org/2000/svg" xmlns:xlink="http://www.w3.org/1999/xlink" xmlns:t="http://www.tagul.com/schema">
  <t:styleOptions>
    <t:backgroundColor>FFFFFF</t:backgroundColor>
    <t:backgroundColorAlpha>1</t:backgroundColorAlpha>
    <t:animationSpeed>0.200000002980232</t:animationSpeed>
    <t:textColor>FFFFFF</t:textColor>
    <t:textAlpha>1</t:textAlpha>
    <t:boxColor>000000</t:boxColor>
    <t:boxAlpha>0.699999988079071</t:boxAlpha>
    <t:zoom>1</t:zoom>
    <t:rotate>1</t:rotate>
    <t:openLinksInNewWindow>0</t:openLinksInNewWindow>
  </t:styleOptions>
  <style type="text/css">svg { background-color: #FFFFFF; } rect { opacity: 0; }</style>
  <defs>
    <symbol overflow="visible" id="f1g100">
      <path d="M 348 -107 Q 348 -96 353 -85 Q 359 -74 368 -65 Q 377 -57 388 -51 Q 399 -46 410 -46 Q 414 -38 414 -20 Q 414 3 402 7 Q 391 12 372 12 Q 347 12 324 -5 Q 302 -22 292 -46 Q 241 7 175 7 Q 21 7 21 -268 Q 21 -308 32 -348 Q 44 -388 64 -419 Q 84 -451 110 -470 Q 137 -490 168 -490 Q 185 -490 192 -486 Q 199 -483 214 -466 L 239 -437 Q 243 -449 243 -625 Q 243 -692 192 -692 L 185 -692 L 185 -703 Q 185 -716 180 -729 Q 234 -743 276 -754 Q 318 -765 347 -773 L 348 -107 M 249 -283 Q 249 -413 189 -413 Q 122 -413 122 -227 Q 122 -42 189 -42 Q 249 -42 249 -162 Q 249 -173 248 -194 Q 247 -216 247 -227 Q 247 -237 248 -255 Q 249 -274 249 -283 "/>
    </symbol>
    <symbol overflow="visible" id="f1g111">
      <path d="M 177 -503 Q 358 -503 358 -246 Q 358 -186 345 -138 Q 333 -91 310 -57 Q 287 -23 253 -5 Q 220 13 177 13 Q 16 13 16 -276 Q 16 -319 28 -359 Q 41 -400 63 -432 Q 85 -464 114 -483 Q 144 -503 177 -503 M 199 -450 Q 117 -450 117 -251 Q 117 -31 180 -31 Q 267 -31 267 -225 Q 267 -273 261 -314 Q 256 -355 247 -385 Q 238 -415 225 -432 Q 213 -450 199 -450 "/>
    </symbol>
    <symbol overflow="visible" id="f1g99">
      <path d="M 345 -379 Q 345 -350 327 -328 Q 310 -307 282 -307 Q 258 -307 241 -325 Q 224 -343 224 -367 Q 224 -385 239 -399 Q 254 -413 272 -413 Q 278 -413 284 -408 Q 290 -404 295 -404 L 295 -406 Q 295 -426 278 -436 Q 262 -447 226 -447 Q 175 -447 151 -406 Q 127 -365 127 -267 Q 127 -202 131 -157 Q 135 -113 144 -85 Q 153 -57 166 -44 Q 180 -32 200 -32 Q 215 -32 223 -33 Q 232 -35 241 -42 Q 251 -49 263 -63 Q 276 -78 298 -104 Q 320 -93 335 -78 Q 308 -46 290 -27 Q 273 -9 259 1 Q 245 11 232 13 Q 220 16 202 16 Q 117 16 71 -59 Q 26 -134 26 -268 Q 26 -311 39 -352 Q 52 -393 74 -424 Q 96 -456 125 -475 Q 155 -495 188 -495 Q 219 -495 247 -486 Q 276 -478 298 -462 Q 320 -447 332 -425 Q 345 -404 345 -379 "/>
    </symbol>
    <symbol overflow="visible" id="f1g110">
      <path d="M 480 -82 Q 480 -48 456 -25 Q 432 -3 398 -3 Q 301 -3 301 -93 L 301 -284 Q 301 -311 295 -335 Q 289 -360 279 -379 Q 269 -399 254 -410 Q 240 -422 224 -422 Q 210 -422 198 -409 Q 186 -397 186 -382 Q 180 -127 180 -121 Q 180 -50 232 -50 Q 239 -50 243 -51 L 243 -4 L 13 -4 L 13 -55 Q 22 -60 32 -60 Q 43 -60 53 -62 Q 63 -65 69 -73 Q 76 -82 76 -105 Q 76 -111 75 -121 Q 74 -132 73 -143 Q 73 -155 72 -165 Q 71 -176 71 -182 Q 71 -197 73 -229 Q 75 -262 78 -295 Q 81 -328 83 -354 Q 85 -381 85 -386 Q 85 -399 68 -411 Q 51 -423 27 -423 L 28 -428 Q 28 -448 22 -460 Q 51 -468 94 -479 Q 137 -490 195 -504 Q 192 -469 192 -465 Q 192 -456 194 -446 Q 229 -490 265 -490 Q 286 -490 310 -472 Q 334 -455 354 -429 Q 375 -404 389 -375 Q 403 -346 403 -324 L 403 -120 Q 403 -71 420 -56 Q 439 -66 439 -88 Q 439 -92 438 -101 Q 437 -110 437 -115 L 437 -123 L 480 -123 L 480 -82 "/>
    </symbol>
    <symbol overflow="visible" id="f1g101">
      <path d="M 341 -325 Q 341 -279 332 -263 L 123 -263 Q 120 -216 120 -199 Q 120 -42 191 -42 Q 245 -42 286 -132 L 323 -132 Q 293 7 174 7 Q 15 7 15 -268 Q 15 -316 27 -356 Q 39 -397 61 -427 Q 84 -457 116 -473 Q 148 -490 188 -490 Q 261 -490 301 -445 Q 341 -400 341 -325 M 251 -345 Q 251 -452 191 -452 Q 179 -452 167 -441 Q 156 -431 146 -415 Q 137 -399 131 -381 Q 126 -363 126 -347 L 126 -322 L 250 -322 Q 251 -328 251 -334 Q 251 -340 251 -345 "/>
    </symbol>
    <symbol overflow="visible" id="f1g109">
      <path d="M 694 -82 Q 694 -48 670 -25 Q 647 -3 613 -3 Q 516 -3 516 -93 L 516 -284 Q 516 -311 510 -335 Q 504 -360 494 -379 Q 484 -399 469 -410 Q 455 -422 439 -422 Q 430 -422 423 -414 Q 416 -407 410 -396 Q 405 -385 402 -371 Q 400 -358 400 -345 Q 400 -339 400 -327 Q 401 -316 401 -305 Q 402 -294 402 -285 Q 403 -276 403 -273 Q 403 -265 402 -245 Q 402 -226 402 -201 Q 402 -176 403 -149 Q 405 -122 409 -99 Q 414 -77 422 -62 Q 431 -48 445 -48 Q 451 -48 457 -51 L 457 -3 L 251 -3 Q 257 -19 257 -55 L 259 -55 Q 282 -55 293 -75 Q 305 -95 305 -139 L 305 -173 Q 305 -184 304 -193 Q 303 -202 304 -207 Q 304 -266 299 -307 Q 295 -348 285 -373 Q 276 -399 261 -410 Q 247 -422 227 -422 Q 212 -422 200 -409 Q 188 -397 188 -382 Q 185 -256 184 -193 Q 183 -131 183 -129 Q 183 -54 212 -54 Q 218 -54 221 -55 L 221 -45 Q 221 -24 226 1 Q 87 -2 84 -3 Q 38 -3 15 1 L 15 -55 Q 24 -60 34 -59 Q 45 -59 55 -61 Q 65 -64 71 -73 Q 78 -82 78 -105 Q 78 -111 77 -121 Q 76 -132 75 -143 Q 75 -155 74 -165 Q 73 -176 73 -182 Q 73 -197 75 -229 Q 77 -261 80 -294 Q 83 -328 85 -355 Q 87 -382 87 -388 Q 87 -403 73 -412 Q 59 -422 30 -423 L 30 -429 Q 30 -445 25 -460 Q 54 -468 96 -479 Q 139 -490 197 -504 Q 194 -469 194 -465 Q 194 -456 196 -446 Q 231 -490 268 -490 Q 281 -490 297 -482 Q 313 -475 327 -464 Q 341 -453 352 -439 Q 364 -426 369 -413 Q 392 -439 406 -454 Q 421 -469 432 -477 Q 444 -485 454 -487 Q 465 -490 480 -490 Q 501 -490 525 -472 Q 550 -454 570 -428 Q 590 -403 603 -374 Q 617 -345 617 -324 L 617 -120 Q 617 -71 634 -56 Q 653 -66 653 -88 Q 653 -92 652 -101 Q 651 -110 651 -115 Q 651 -120 652 -123 L 694 -123 L 694 -82 "/>
    </symbol>
    <symbol overflow="visible" id="f1g97">
      <path d="M 381 -19 Q 381 4 370 8 Q 359 12 340 12 Q 315 12 292 -5 Q 269 -22 260 -46 Q 209 7 142 7 Q 81 7 44 -27 Q 7 -61 7 -121 Q 7 -158 19 -188 Q 31 -219 53 -241 Q 76 -263 107 -274 Q 138 -286 177 -286 Q 185 -286 194 -285 Q 203 -285 213 -284 Q 217 -303 217 -329 Q 217 -451 133 -451 Q 98 -451 80 -411 Q 97 -418 112 -418 Q 152 -418 152 -355 Q 152 -346 145 -336 Q 139 -327 129 -319 Q 119 -312 108 -307 Q 98 -302 89 -302 Q 27 -302 27 -386 Q 27 -439 73 -467 Q 120 -495 203 -495 Q 264 -495 291 -442 Q 319 -390 319 -266 Q 319 -258 318 -241 Q 318 -224 318 -205 Q 318 -186 317 -169 Q 317 -152 317 -143 Q 317 -37 351 -37 Q 362 -37 377 -46 Q 381 -34 381 -19 M 215 -106 Q 214 -117 213 -125 Q 213 -134 213 -140 Q 212 -147 212 -152 L 212 -151 Q 212 -166 212 -185 Q 213 -205 214 -229 Q 196 -234 174 -234 Q 144 -234 125 -207 Q 107 -181 107 -142 Q 107 -100 128 -71 Q 150 -42 186 -42 Q 206 -42 209 -66 Q 211 -85 212 -94 Q 214 -104 215 -106 "/>
    </symbol>
    <symbol overflow="visible" id="f1g116">
      <path d="M 237 -63 Q 237 -49 230 -37 Q 223 -26 212 -17 Q 201 -8 188 -3 Q 175 2 163 2 Q 130 2 109 -3 Q 89 -8 78 -24 Q 67 -41 63 -71 Q 60 -102 60 -152 L 60 -414 Q 38 -422 23 -422 Q 19 -422 10 -420 Q 2 -419 -3 -419 Q -3 -421 -2 -428 Q -1 -436 0 -444 Q 1 -452 2 -458 Q 4 -465 6 -465 Q 69 -465 103 -511 Q 137 -557 137 -629 L 171 -629 L 171 -479 Q 190 -477 228 -470 L 228 -418 L 160 -418 L 160 -82 Q 160 -58 177 -58 Q 195 -58 195 -76 L 195 -123 L 237 -123 L 237 -63 "/>
    </symbol>
    <symbol overflow="visible" id="f1g104">
      <path d="M 480 -82 Q 480 -48 456 -25 Q 433 -3 398 -3 Q 302 -3 302 -93 L 302 -284 Q 302 -305 294 -327 Q 286 -349 273 -367 Q 260 -385 243 -396 Q 227 -408 210 -408 Q 191 -408 181 -386 L 181 -82 Q 181 -50 225 -50 Q 229 -50 233 -50 Q 238 -50 243 -51 L 243 -4 L 13 -4 L 13 -55 L 17 -55 Q 79 -55 79 -128 L 79 -247 Q 79 -292 82 -387 Q 85 -483 85 -637 Q 85 -657 69 -669 Q 53 -682 33 -682 L 28 -682 L 28 -694 Q 28 -701 23 -719 Q 52 -727 94 -738 Q 137 -749 195 -763 Q 192 -698 192 -675 Q 192 -649 192 -593 Q 193 -537 194 -446 Q 207 -461 215 -469 Q 223 -478 229 -482 Q 236 -487 243 -488 Q 250 -490 261 -490 Q 284 -490 309 -472 Q 334 -455 355 -429 Q 376 -404 389 -375 Q 403 -346 403 -324 L 403 -120 Q 403 -71 420 -56 Q 439 -66 439 -88 Q 439 -92 438 -101 Q 437 -110 437 -115 Q 437 -122 438 -123 L 480 -123 L 480 -82 "/>
    </symbol>
    <symbol overflow="visible" id="f1g105">
      <path d="M 199 -601 Q 199 -587 192 -574 Q 186 -561 175 -551 Q 165 -541 151 -535 Q 138 -529 125 -529 Q 97 -529 76 -553 Q 55 -578 55 -611 Q 55 -638 77 -655 Q 100 -673 127 -673 Q 158 -673 178 -652 Q 199 -632 199 -601 M 247 -4 L 17 -4 L 17 -55 Q 18 -54 32 -54 Q 87 -54 87 -134 Q 87 -173 85 -204 Q 84 -236 84 -271 Q 84 -294 85 -318 Q 86 -343 89 -374 Q 89 -399 71 -411 Q 54 -423 31 -423 L 32 -428 Q 32 -448 26 -459 Q 81 -474 194 -504 Q 189 -412 186 -319 Q 183 -226 183 -129 Q 183 -90 195 -70 Q 207 -50 236 -50 Q 246 -50 247 -51 L 247 -4 "/>
    </symbol>
    <symbol overflow="visible" id="f1g115">
      <path d="M 169 -497 Q 247 -497 287 -463 Q 328 -430 328 -379 Q 328 -349 310 -327 Q 292 -305 263 -305 Q 238 -305 220 -323 Q 203 -342 203 -367 Q 203 -386 218 -400 Q 234 -415 253 -415 Q 260 -415 266 -410 Q 273 -406 275 -406 Q 276 -409 276 -413 Q 276 -421 268 -427 Q 260 -434 247 -439 Q 234 -444 217 -446 Q 201 -449 184 -449 Q 173 -449 161 -444 Q 150 -439 139 -430 Q 129 -422 122 -411 Q 116 -401 116 -391 Q 116 -372 121 -356 Q 126 -340 138 -325 Q 151 -310 172 -294 Q 194 -278 227 -259 Q 251 -246 270 -233 Q 290 -221 304 -206 Q 318 -191 325 -172 Q 333 -154 333 -128 Q 333 -105 325 -79 Q 317 -54 301 -32 Q 285 -11 261 3 Q 237 18 205 18 Q 117 18 66 -12 Q 15 -42 15 -99 Q 15 -129 33 -151 Q 51 -174 80 -174 Q 105 -174 122 -155 Q 140 -137 140 -111 Q 140 -93 124 -78 Q 109 -64 90 -64 Q 83 -64 77 -68 Q 72 -72 70 -73 Q 78 -29 164 -29 Q 179 -29 194 -34 Q 209 -40 221 -49 Q 233 -58 240 -71 Q 247 -84 247 -99 Q 247 -135 194 -171 Q 104 -234 97 -241 Q 44 -291 44 -357 Q 44 -385 55 -410 Q 67 -436 85 -455 Q 103 -475 125 -486 Q 147 -497 169 -497 "/>
    </symbol>
    <symbol overflow="visible" id="f1g108">
      <path d="M 239 -4 L 9 -4 L 9 -55 Q 73 -58 73 -102 Q 73 -107 72 -116 Q 71 -126 71 -131 L 71 -568 Q 71 -573 72 -583 Q 74 -594 76 -605 Q 78 -617 79 -627 Q 81 -638 81 -643 Q 81 -666 66 -679 Q 51 -692 30 -692 L 24 -692 L 24 -698 Q 24 -717 18 -729 Q 47 -737 90 -748 Q 133 -759 191 -773 Q 191 -762 188 -716 Q 186 -670 181 -588 Q 179 -565 178 -551 Q 177 -538 177 -533 L 177 -531 L 177 -82 Q 177 -50 221 -50 Q 225 -50 229 -50 Q 234 -50 239 -51 L 239 -4 "/>
    </symbol>
    <symbol overflow="visible" id="f1g120">
      <path d="M 421 -491 L 421 -438 Q 401 -433 390 -430 Q 380 -428 373 -425 Q 367 -422 362 -416 Q 358 -411 351 -400 Q 337 -380 316 -348 Q 295 -317 266 -272 Q 278 -254 291 -224 Q 305 -194 322 -164 Q 340 -135 362 -112 Q 385 -89 416 -85 L 421 -20 Q 403 -8 343 -8 L 227 -8 L 227 -102 L 230 -102 Q 248 -102 248 -116 Q 248 -120 243 -133 Q 239 -147 233 -162 Q 227 -177 221 -190 Q 215 -203 212 -208 Q 210 -206 204 -196 Q 199 -187 193 -174 Q 187 -161 182 -147 Q 177 -133 177 -123 Q 177 -95 202 -95 L 202 -8 Q 160 -10 131 -11 Q 102 -13 82 -13 Q 62 -13 45 -11 Q 28 -10 12 -8 Q 12 -19 12 -34 Q 12 -49 13 -69 Q 49 -69 87 -110 Q 125 -151 183 -239 Q 166 -276 153 -307 Q 140 -339 125 -361 Q 111 -384 92 -397 Q 74 -410 46 -411 Q 34 -411 33 -410 L 33 -487 L 226 -487 L 226 -427 Q 207 -421 206 -396 Q 210 -382 218 -360 Q 227 -338 241 -309 Q 245 -313 253 -323 Q 262 -333 269 -345 Q 277 -357 283 -370 Q 289 -383 289 -394 Q 289 -416 256 -427 L 256 -491 L 421 -491 "/>
    </symbol>
    <symbol overflow="visible" id="f1g112">
      <path d="M 394 -218 Q 394 -179 382 -139 Q 371 -99 351 -67 Q 331 -36 304 -16 Q 277 4 247 4 Q 220 4 203 -11 Q 186 -27 175 -49 Q 172 -47 172 -28 L 172 59 Q 172 88 181 105 Q 191 122 225 122 Q 231 122 239 120 Q 235 130 234 142 Q 234 154 234 167 Q 225 167 204 168 Q 183 170 158 172 Q 134 174 111 175 Q 88 177 76 177 Q 25 177 14 167 L 14 125 Q 41 123 56 103 Q 71 84 71 46 L 71 -339 Q 60 -411 35 -411 Q 26 -411 -2 -402 L -2 -444 Q 26 -456 55 -470 Q 85 -485 116 -502 L 138 -502 L 147 -444 Q 150 -445 156 -453 Q 162 -461 173 -470 Q 184 -479 200 -486 Q 217 -493 240 -493 Q 394 -493 394 -218 M 225 -445 Q 166 -445 166 -326 L 166 -205 Q 166 -74 225 -74 Q 293 -74 293 -259 Q 293 -445 225 -445 "/>
    </symbol>
    <symbol overflow="visible" id="f1g119">
      <path d="M 639 -439 L 488 5 Q 483 3 475 2 Q 468 1 458 1 Q 448 1 436 2 Q 424 3 410 5 L 341 -273 L 247 12 Q 240 11 231 10 Q 222 10 209 10 Q 201 10 191 10 Q 181 10 170 11 Q 165 -7 156 -40 Q 147 -73 136 -112 Q 126 -151 114 -193 Q 102 -236 92 -273 Q 82 -310 74 -338 Q 67 -367 64 -379 Q 62 -385 55 -390 Q 48 -396 39 -400 Q 30 -404 20 -406 Q 11 -408 5 -408 Q 6 -415 7 -426 Q 8 -437 10 -451 Q 32 -458 63 -467 Q 95 -476 140 -487 L 228 -93 Q 242 -148 253 -190 Q 265 -233 274 -266 Q 283 -300 290 -325 Q 297 -350 302 -371 Q 302 -387 286 -403 Q 270 -419 254 -419 Q 246 -419 245 -418 L 245 -456 Q 287 -467 318 -476 Q 349 -485 370 -492 Q 388 -426 412 -330 Q 437 -234 468 -98 Q 543 -374 543 -376 Q 543 -384 538 -392 Q 534 -401 526 -408 Q 519 -415 510 -419 Q 502 -424 494 -424 Q 486 -424 485 -423 L 485 -461 Q 525 -469 563 -481 Q 602 -493 639 -507 L 639 -439 "/>
    </symbol>
    <symbol overflow="visible" id="f1g107">
      <path d="M 485 -82 Q 485 -48 461 -25 Q 438 -3 404 -3 Q 360 -3 340 -18 Q 320 -34 312 -59 Q 304 -84 302 -114 Q 301 -145 295 -174 Q 288 -204 263 -219 Q 239 -234 220 -234 Q 185 -234 185 -179 L 185 -114 Q 185 -51 241 -51 L 249 -51 L 249 -4 L 19 -4 L 19 -55 L 23 -55 Q 84 -55 84 -128 Q 84 -137 83 -144 Q 82 -152 80 -170 Q 79 -189 78 -224 Q 77 -259 77 -323 Q 77 -383 79 -461 Q 82 -540 89 -637 Q 89 -657 73 -669 Q 58 -682 38 -682 L 32 -682 L 32 -694 Q 32 -696 30 -702 Q 29 -708 27 -719 Q 56 -727 98 -738 Q 141 -749 199 -763 Q 191 -721 189 -686 Q 187 -652 187 -624 L 187 -292 Q 195 -297 219 -322 Q 243 -347 288 -392 L 288 -414 Q 281 -418 266 -418 L 260 -418 L 260 -477 L 446 -477 L 446 -423 L 442 -423 Q 418 -423 390 -411 Q 363 -399 336 -378 Q 310 -358 287 -330 Q 264 -303 249 -272 L 256 -272 Q 328 -272 368 -217 Q 409 -163 413 -60 L 429 -56 Q 443 -67 443 -87 L 443 -123 L 485 -123 L 485 -82 "/>
    </symbol>
    <symbol overflow="visible" id="f1g98">
      <path d="M 393 -268 Q 393 7 239 7 Q 174 7 121 -46 Q 109 -27 100 -15 Q 91 -4 82 2 Q 74 8 64 10 Q 54 12 41 12 Q 25 12 16 9 Q 8 6 4 0 Q 0 -6 -1 -16 Q -2 -26 -2 -41 Q 73 -51 73 -158 Q 73 -167 72 -187 Q 71 -207 70 -229 Q 69 -252 68 -273 Q 67 -294 67 -304 L 70 -643 Q 70 -665 55 -678 Q 40 -692 19 -692 L 13 -692 L 13 -698 L 13 -704 Q 13 -717 8 -729 Q 37 -737 79 -748 Q 122 -759 180 -773 Q 177 -711 177 -685 Q 177 -604 177 -544 Q 178 -484 179 -446 Q 192 -462 200 -470 Q 208 -479 214 -483 Q 221 -488 228 -489 Q 235 -490 246 -490 Q 276 -490 302 -470 Q 329 -451 349 -419 Q 370 -388 381 -348 Q 393 -308 393 -268 M 292 -232 Q 292 -263 285 -294 Q 278 -326 266 -351 Q 255 -376 239 -392 Q 223 -408 205 -408 Q 188 -408 167 -387 L 167 -107 Q 167 -97 169 -85 Q 171 -74 175 -64 Q 179 -55 184 -48 Q 189 -42 195 -42 Q 292 -42 292 -232 "/>
    </symbol>
    <symbol overflow="visible" id="f1g103">
      <path d="M 380 -566 Q 380 -544 369 -538 Q 359 -532 344 -527 Q 329 -523 312 -513 Q 296 -503 284 -473 Q 296 -465 306 -450 Q 317 -436 324 -417 Q 332 -398 336 -377 Q 341 -356 341 -336 Q 341 -301 329 -271 Q 318 -242 291 -215 Q 264 -188 220 -162 Q 176 -136 112 -109 Q 103 -101 103 -91 Q 103 -69 133 -69 Q 130 -69 140 -74 Q 150 -80 167 -88 Q 184 -96 205 -105 Q 226 -114 246 -122 Q 266 -130 281 -135 Q 296 -141 301 -141 Q 312 -141 321 -132 Q 330 -124 336 -109 Q 342 -94 345 -74 Q 349 -55 349 -33 Q 349 1 325 39 Q 302 78 266 111 Q 231 144 190 165 Q 150 187 116 187 Q 17 187 17 78 Q 17 58 20 42 Q 23 26 31 11 Q 40 -4 55 -20 Q 70 -36 93 -56 Q 73 -65 62 -70 Q 51 -75 46 -80 Q 41 -85 40 -90 Q 40 -96 40 -107 Q 40 -120 45 -129 Q 51 -138 60 -144 Q 69 -150 79 -154 Q 90 -158 101 -163 Q 25 -226 25 -300 Q 25 -408 66 -453 Q 107 -498 196 -498 Q 229 -498 253 -488 Q 254 -508 262 -529 Q 271 -550 283 -567 Q 296 -584 312 -595 Q 328 -606 346 -606 Q 380 -606 380 -566 M 236 -345 Q 236 -469 180 -469 Q 165 -469 155 -463 Q 145 -457 139 -437 Q 133 -418 130 -380 Q 128 -342 128 -278 Q 128 -184 161 -184 Q 181 -184 195 -192 Q 209 -200 218 -219 Q 227 -238 231 -269 Q 236 -300 236 -345 M 260 -13 Q 260 -34 251 -54 Q 242 -74 228 -74 Q 207 -74 187 -60 Q 168 -46 152 -24 Q 137 -3 128 24 Q 119 51 119 76 Q 119 143 158 143 Q 178 143 196 129 Q 215 115 229 92 Q 243 70 251 42 Q 260 14 260 -13 "/>
    </symbol>
    <symbol overflow="visible" id="f1g114">
      <path d="M 267 -495 Q 313 -495 337 -465 Q 362 -435 362 -389 Q 362 -375 356 -358 Q 351 -342 342 -328 Q 334 -315 323 -306 Q 312 -297 301 -297 Q 285 -297 270 -303 Q 255 -309 244 -319 Q 233 -329 226 -343 Q 219 -357 219 -373 Q 219 -418 270 -418 Q 275 -418 282 -415 Q 289 -412 292 -412 L 292 -414 Q 292 -442 258 -442 Q 175 -442 175 -254 L 175 -219 Q 175 -168 176 -135 Q 177 -103 182 -84 Q 187 -65 198 -57 Q 210 -50 230 -50 Q 240 -50 241 -51 L 241 -4 L 11 -4 L 11 -55 L 44 -62 Q 61 -66 69 -75 Q 78 -85 78 -97 L 78 -374 Q 78 -399 61 -411 Q 45 -423 25 -423 L 26 -428 Q 26 -448 20 -460 Q 46 -468 85 -479 Q 124 -490 178 -504 Q 175 -481 174 -457 Q 173 -434 173 -408 Q 188 -448 216 -471 Q 245 -495 267 -495 "/>
    </symbol>
    <symbol overflow="visible" id="f1g117">
      <path d="M 416 6 Q 405 12 398 12 Q 373 12 350 -5 Q 327 -22 318 -46 Q 267 7 200 7 Q 173 7 148 -2 Q 123 -11 103 -27 Q 84 -43 72 -66 Q 61 -89 61 -117 L 61 -333 Q 61 -360 43 -377 Q 25 -394 -1 -394 Q 0 -401 1 -411 Q 2 -422 3 -436 L 151 -480 Q 148 -291 148 -206 Q 148 -156 152 -124 Q 157 -92 165 -74 Q 174 -56 186 -49 Q 199 -42 215 -42 Q 276 -42 276 -162 L 276 -302 Q 276 -357 260 -380 Q 245 -404 216 -404 L 216 -441 Q 250 -451 289 -462 Q 328 -473 373 -485 Q 374 -428 374 -383 Q 374 -338 374 -303 Q 374 -255 373 -226 Q 373 -198 372 -180 Q 372 -163 371 -152 Q 371 -141 371 -128 Q 371 -64 421 -41 L 416 6 "/>
    </symbol>
    <symbol overflow="visible" id="f1g83">
      <path d="M 447 -189 Q 447 -132 428 -87 Q 410 -43 375 -12 Q 341 18 293 33 Q 245 49 187 49 Q 160 49 129 35 Q 99 21 73 -1 Q 48 -23 31 -51 Q 14 -79 14 -107 Q 14 -179 39 -210 Q 65 -241 124 -241 Q 201 -241 201 -165 Q 201 -129 179 -105 Q 158 -82 123 -82 Q 118 -82 107 -85 Q 96 -88 90 -88 Q 83 -88 80 -87 Q 99 -16 188 -16 L 209 -17 Q 327 -18 327 -137 Q 327 -171 305 -202 Q 284 -234 250 -265 Q 217 -296 175 -325 Q 134 -355 95 -384 Q 14 -460 14 -562 Q 14 -641 70 -687 Q 127 -734 225 -734 Q 271 -734 309 -724 Q 348 -715 376 -697 Q 404 -679 420 -653 Q 436 -628 436 -597 Q 436 -583 428 -569 Q 421 -556 409 -545 Q 397 -534 382 -527 Q 368 -521 354 -521 Q 337 -521 319 -526 Q 301 -532 287 -541 Q 273 -551 264 -564 Q 255 -577 255 -592 Q 255 -615 268 -632 Q 282 -649 304 -649 L 311 -649 Q 309 -659 300 -668 Q 291 -678 278 -685 Q 265 -693 250 -697 Q 236 -702 223 -702 Q 206 -702 191 -694 Q 176 -686 165 -673 Q 154 -660 147 -643 Q 140 -627 140 -611 Q 140 -607 144 -594 Q 149 -581 155 -567 Q 161 -553 167 -540 Q 173 -527 176 -523 Q 188 -505 209 -483 Q 230 -461 254 -438 Q 279 -416 303 -394 Q 328 -373 347 -356 Q 367 -340 379 -330 Q 392 -320 392 -321 Q 447 -262 447 -189 "/>
    </symbol>
    <symbol overflow="visible" id="f1g84">
      <path d="M 433 -577 Q 434 -582 434 -587 Q 435 -592 435 -597 Q 435 -660 353 -660 Q 349 -660 341 -659 Q 334 -659 326 -659 Q 318 -659 310 -658 Q 302 -658 298 -658 L 298 -101 Q 298 -92 306 -84 Q 315 -77 328 -71 Q 342 -66 358 -63 Q 374 -60 390 -60 L 390 21 L 96 21 L 96 -60 Q 111 -55 121 -55 Q 149 -55 166 -88 Q 183 -121 183 -168 L 183 -652 L 142 -652 Q 117 -652 102 -643 Q 88 -635 80 -622 Q 72 -610 67 -594 Q 63 -579 58 -565 Q 47 -568 33 -570 Q 20 -572 3 -572 Q -3 -572 -9 -571 Q -15 -571 -22 -571 Q -17 -587 -4 -627 Q 8 -668 28 -734 L 481 -734 Q 485 -708 491 -668 Q 498 -629 509 -577 L 433 -577 "/>
    </symbol>
  </defs>
  <a xlink:href="http://www.google.com/search?q=doconce" target="_top">
    <t:tag>doconce</t:tag>
    <g transform="matrix(0.0366314,0,0,0.0366314,27,112.066)" fill="#3333FF">
      <rect x="-137.28" y="-937.28" width="2922.56" height="1106.56"/>
      <use xlink:href="#f1g100" x="0" y="0"/>
      <use xlink:href="#f1g111" x="396" y="0"/>
      <use xlink:href="#f1g99" x="757" y="0"/>
      <use xlink:href="#f1g111" x="1108" y="0"/>
      <use xlink:href="#f1g110" x="1469" y="0"/>
      <use xlink:href="#f1g99" x="1945" y="0"/>
      <use xlink:href="#f1g101" x="2296" y="0"/>
    </g>
  </a>
  <a xlink:href="http://www.google.com/search?q=mathematics" target="_top">
    <t:tag>mathematics</t:tag>
    <g transform="matrix(0.019023,0,0,0.019023,40,92.0005)" fill="#3333FF">
      <rect x="-132" y="-900" width="4522" height="1064"/>
      <use xlink:href="#f1g109" x="0" y="0"/>
      <use xlink:href="#f1g97" x="679" y="0"/>
      <use xlink:href="#f1g116" x="1025" y="0"/>
      <use xlink:href="#f1g104" x="1260" y="0"/>
      <use xlink:href="#f1g101" x="1732" y="0"/>
      <use xlink:href="#f1g109" x="2071" y="0"/>
      <use xlink:href="#f1g97" x="2750" y="0"/>
      <use xlink:href="#f1g116" x="3096" y="0"/>
      <use xlink:href="#f1g105" x="3331" y="0"/>
      <use xlink:href="#f1g99" x="3555" y="0"/>
      <use xlink:href="#f1g115" x="3906" y="0"/>
    </g>
  </a>
  <a xlink:href="http://www.google.com/search?q=latex" target="_top">
    <t:tag>latex</t:tag>
    <g transform="matrix(0.03125,0,0,0.03125,50.375,76)" fill="#3333CC">
      <rect x="-137.28" y="-937.28" width="1882.56" height="1106.56"/>
      <use xlink:href="#f1g108" x="0" y="0"/>
      <use xlink:href="#f1g97" x="241" y="0"/>
      <use xlink:href="#f1g116" x="587" y="0"/>
      <use xlink:href="#f1g101" x="822" y="0"/>
      <use xlink:href="#f1g120" x="1160" y="0"/>
    </g>
  </a>
  <a xlink:href="http://www.google.com/search?q=sphinx" target="_top">
    <t:tag>sphinx</t:tag>
    <g transform="matrix(0.0172124,0,0,0.0172124,55,47.4572)" fill="#3300CC">
      <rect x="-158.4" y="-926.4" width="2698.8" height="1276.8"/>
      <use xlink:href="#f1g115" x="0" y="0"/>
      <use xlink:href="#f1g112" x="331" y="0"/>
      <use xlink:href="#f1g104" x="730" y="0"/>
      <use xlink:href="#f1g105" x="1202" y="0"/>
      <use xlink:href="#f1g110" x="1458" y="0"/>
      <use xlink:href="#f1g120" x="1934" y="0"/>
    </g>
  </a>
  <a xlink:href="http://www.google.com/search?q=code" target="_top">
    <t:tag>code</t:tag>
    <g transform="matrix(0.0132212,0,0,0.0132212,65.9081,33.5769)" fill="#336699">
      <rect x="-137.28" y="-937.28" width="1725.56" height="1106.56"/>
      <use xlink:href="#f1g99" x="0" y="0"/>
      <use xlink:href="#f1g111" x="351" y="0"/>
      <use xlink:href="#f1g100" x="712" y="0"/>
      <use xlink:href="#f1g101" x="1099" y="0"/>
    </g>
  </a>
  <a xlink:href="http://www.google.com/search?q=html" target="_top">
    <t:tag>html</t:tag>
    <g transform="matrix(0.0132212,0,0,0.0132212,79.2578,59.5769)" fill="#3333FF">
      <rect x="-137.28" y="-937.28" width="1899.56" height="1106.56"/>
      <use xlink:href="#f1g104" x="0" y="0"/>
      <use xlink:href="#f1g116" x="455" y="0"/>
      <use xlink:href="#f1g109" x="690" y="0"/>
      <use xlink:href="#f1g108" x="1369" y="0"/>
    </g>
  </a>
  <a xlink:href="http://www.google.com/search?q=pandoc" target="_top">
    <t:tag>pandoc</t:tag>
    <g transform="matrix(0.00755985,0,0,0.00755985,32.2419,80.2982)" fill="#3300CC">
      <rect x="-195.68" y="-963.68" width="2708.36" height="1319.36"/>
      <use xlink:href="#f1g112" x="0" y="0"/>
      <use xlink:href="#f1g97" x="399" y="0"/>
      <use xlink:href="#f1g110" x="764" y="0"/>
      <use xlink:href="#f1g100" x="1240" y="0"/>
      <use xlink:href="#f1g111" x="1636" y="0"/>
      <use xlink:href="#f1g99" x="1997" y="0"/>
    </g>
  </a>
  <a xlink:href="http://www.google.com/search?q=wiki" target="_top">
    <t:tag>wiki</t:tag>
    <g transform="matrix(0.01,0,0,0.01,67.39,22.68)" fill="#3333CC">
      <rect x="-132" y="-900" width="1886" height="1064"/>
      <use xlink:href="#f1g119" x="0" y="0"/>
      <use xlink:href="#f1g105" x="635" y="0"/>
      <use xlink:href="#f1g107" x="891" y="0"/>
      <use xlink:href="#f1g105" x="1366" y="0"/>
    </g>
  </a>
  <a xlink:href="http://www.google.com/search?q=blog" target="_top">
    <t:tag>blog</t:tag>
    <g transform="matrix(0.010043,0,0,0.010043,99.3214,71.0531)" fill="#3333CC">
      <rect x="-195.68" y="-963.68" width="1721.36" height="1319.36"/>
      <use xlink:href="#f1g98" x="0" y="0"/>
      <use xlink:href="#f1g108" x="407" y="0"/>
      <use xlink:href="#f1g111" x="621" y="0"/>
      <use xlink:href="#f1g103" x="982" y="0"/>
    </g>
  </a>
  <a xlink:href="http://www.google.com/search?q=text" target="_top">
    <t:tag>text</t:tag>
    <g transform="matrix(0.0108275,0,0,0.0108275,57.3465,58.7916)" fill="#3333FF">
      <rect x="-142.88" y="-750.88" width="1514.76" height="893.76"/>
      <use xlink:href="#f1g116" x="0" y="0"/>
      <use xlink:href="#f1g101" x="235" y="0"/>
      <use xlink:href="#f1g120" x="573" y="0"/>
      <use xlink:href="#f1g116" x="1005" y="0"/>
    </g>
  </a>
  <a xlink:href="http://www.google.com/search?q=markdown" target="_top">
    <t:tag>markdown</t:tag>
    <g transform="matrix(0.00600962,0,0,0.00600962,73.274,81.8077)" fill="#3366CC">
      <rect x="-137.28" y="-937.28" width="4010.56" height="1106.56"/>
      <use xlink:href="#f1g109" x="0" y="0"/>
      <use xlink:href="#f1g97" x="679" y="0"/>
      <use xlink:href="#f1g114" x="1044" y="0"/>
      <use xlink:href="#f1g107" x="1389" y="0"/>
      <use xlink:href="#f1g100" x="1864" y="0"/>
      <use xlink:href="#f1g111" x="2260" y="0"/>
      <use xlink:href="#f1g119" x="2621" y="0"/>
      <use xlink:href="#f1g110" x="3256" y="0"/>
    </g>
  </a>
  <a xlink:href="http://www.google.com/search?q=ascii" target="_top">
    <t:tag>ascii</t:tag>
    <g transform="matrix(0.00898011,0,0,0.00898011,13,113.517)" fill="#3300FF">
      <rect x="-121.44" y="-825.44" width="1801.88" height="978.88"/>
      <use xlink:href="#f1g97" x="0" y="0"/>
      <use xlink:href="#f1g115" x="365" y="0"/>
      <use xlink:href="#f1g99" x="696" y="0"/>
      <use xlink:href="#f1g105" x="1047" y="0"/>
      <use xlink:href="#f1g105" x="1303" y="0"/>
    </g>
  </a>
  <a xlink:href="http://www.google.com/search?q=computer" target="_top">
    <t:tag>computer</t:tag>
    <g transform="matrix(0.00538998,0,0,0.00538998,35,71.7074)" fill="#3333CC">
      <rect x="-137.28" y="-777.28" width="3428.56" height="1106.56"/>
      <use xlink:href="#f1g99" x="0" y="0"/>
      <use xlink:href="#f1g111" x="351" y="0"/>
      <use xlink:href="#f1g109" x="712" y="0"/>
      <use xlink:href="#f1g112" x="1391" y="0"/>
      <use xlink:href="#f1g117" x="1790" y="0"/>
      <use xlink:href="#f1g116" x="2200" y="0"/>
      <use xlink:href="#f1g101" x="2435" y="0"/>
      <use xlink:href="#f1g114" x="2792" y="0"/>
    </g>
  </a>
  <a xlink:href="http://www.google.com/search?q=reST" target="_top">
    <t:tag>reST</t:tag>
    <g transform="matrix(0.00838826,0,0,0.00838826,124,113.318)" fill="#3300FF">
      <rect x="-132" y="-868" width="1933" height="1064"/>
      <use xlink:href="#f1g114" x="0" y="0"/>
      <use xlink:href="#f1g101" x="345" y="0"/>
      <use xlink:href="#f1g83" x="702" y="0"/>
      <use xlink:href="#f1g84" x="1157" y="0"/>
    </g>
  </a>
</svg>